<svg xmlns="http://www.w3.org/2000/svg" version="1.1" xmlns:xlink="http://www.w3.org/1999/xlink" xmlns:svgjs="http://svgjs.dev/svgjs" width="128" height="128" viewBox="0 0 128 128"><g transform="matrix(0.8046875,0,0,0.8046875,12.221578124999994,18.422059867590775)"><svg viewBox="0 0 96 84" data-background-color="#182524" preserveAspectRatio="xMidYMid meet" height="112" width="128" xmlns="http://www.w3.org/2000/svg" xmlns:xlink="http://www.w3.org/1999/xlink"><g id="tight-bounds" transform="matrix(1,0,0,1,0.25950000000000273,0.48041022049791593)"><svg viewBox="0 0 95.481 83.03917955900417" height="83.03917955900417" width="95.481"><g><svg viewBox="0 0 95.481 83.03917955900417" height="83.03917955900417" width="95.481"><g><svg viewBox="0 0 95.481 83.03917955900417" height="83.03917955900417" width="95.481"><g id="textblocktransform"><svg viewBox="0 0 95.481 83.03917955900417" height="83.03917955900417" width="95.481" id="textblock"><g><svg viewBox="0 0 95.481 83.03917955900417" height="83.03917955900417" width="95.481"><g><svg viewBox="0 0 95.481 83.03917955900417" height="83.03917955900417" width="95.481"><g><svg xmlns="http://www.w3.org/2000/svg" xmlns:xlink="http://www.w3.org/1999/xlink" version="1.1" x="0" y="0" viewBox="2.0964094463851337 8.5 95.55506174060346 83.10359055361486" enable-background="new 0 0 100 100" xml:space="preserve" height="83.03917955900417" width="95.481" class="icon-icon-0" data-fill-palette-color="accent" id="icon-0"><path d="M56.8 8.5C43.2 8.5 32.3 19.5 32.3 33 32.3 46.6 43.3 57.5 56.8 57.5S81.3 46.5 81.3 33C81.4 19.4 70.4 8.5 56.8 8.5M63.9 42.7C62.8 44 61.4 44.9 59.8 45.3 59.1 45.5 58.8 45.9 58.8 46.6V48.8C58.8 49.4 58.5 49.8 57.8 49.8H55.5C54.8 49.8 54.5 49.4 54.5 48.7V47.1C54.5 45.9 54.5 45.9 53.3 45.7 51.9 45.5 50.5 45.1 49.1 44.5 48.1 44 48 43.7 48.3 42.7 48.5 41.9 48.7 41.1 49 40.3 49.2 39.7 49.4 39.5 49.7 39.5 49.9 39.5 50.1 39.6 50.4 39.8 51.9 40.6 53.4 41 55 41.2 55.3 41.2 55.6 41.3 55.8 41.3 56.6 41.3 57.3 41.2 58 40.8 59.8 40 60.1 37.9 58.6 36.7 58.1 36.3 57.5 36 56.9 35.7 55.3 35 53.7 34.5 52.2 33.6 49.8 32.1 48.2 30.2 48.4 27.2 48.6 23.9 50.5 21.8 53.5 20.7 54.8 20.2 54.8 20.3 54.8 18.9V17.6C54.8 16.6 55 16.4 56 16.4H57.1C59 16.4 59 16.5 59 18.5 59 20 59 20 60.5 20.2 61.6 20.4 62.7 20.7 63.8 21.2 64.4 21.5 64.6 21.9 64.4 22.5 64.1 23.4 63.9 24.3 63.6 25.2 63.4 25.7 63.2 26 62.9 26 62.7 26 62.5 25.9 62.2 25.8 60.7 25.1 59.2 24.8 57.6 24.8H57C56.5 24.8 56.1 24.9 55.6 25.1 54 25.8 53.8 27.5 55.1 28.6 55.8 29.1 56.5 29.5 57.4 29.9 58.8 30.5 60.2 31 61.5 31.8 65.7 33.8 66.8 39.1 63.9 42.7M94.3 63C92.5 62.9 88.7 65 87.6 65.5 83.9 67.4 78.8 70.5 75.4 72.9 75.2 73.1 74.9 73.3 74.6 73.4 73.1 74.4 71.5 75.1 69.7 75.5 59.9 77.7 45.6 77.9 45.6 77.9H44.8C44.2 77.9 43.6 77.5 43.5 76.9 43.4 76.2 43.9 75.6 44.6 75.5L65.8 73.4C68.1 73.1 70 70.9 69.7 68.3S67.2 63.9 64.8 64.1L45.9 63.9C44.6 63.9 42.6 63.6 41.3 63.2 29.1 59.5 22.3 63 18.6 64.6 17.8 63.2 16.2 62.3 14.5 62.4L6.7 63C4 63.2 2 65.5 2.1 68.2L3.4 87C3.6 89.7 5.9 91.7 8.6 91.6L16.7 91C18.4 90.9 19.8 89.8 20.4 88.3L56.1 89.9C60.1 90.3 63.8 89.8 67.3 87.9L68.3 87.3 95.3 70.9C96.6 70.1 97.6 68.7 97.6 67.1 97.9 65.3 96.9 63.2 94.3 63M11.6 87.1C10.1 87.1 8.8 85.9 8.8 84.3 8.8 82.8 10 81.5 11.6 81.5 13.1 81.5 14.4 82.7 14.4 84.3S13.2 87.1 11.6 87.1M73.8 65.9C76.6 64.3 82.2 61.5 85.3 60.2 86.8 59.6 88.3 59.6 89.7 60.6 88.6 61 87.6 61.5 86.6 62 83.4 63.7 77.8 66.8 75 68.8 74.7 69 74.4 69.2 74.2 69.4V67.8C74.1 67.1 74 66.5 73.8 65.9 73.8 66 73.8 65.9 73.8 65.9M70.1 61.2C72 60.2 76.2 58.8 78 58 79.5 57.4 81 57.4 82.4 58.4 80.2 59.4 76 61 74 62.1L72.6 62.9C72.5 63 72.4 63.1 72.2 63.2 71.6 62.4 70.9 61.7 70.1 61.2" fill="#d2cb00" data-fill-palette-color="accent"></path></svg></g></svg></g></svg></g></svg></g></svg></g></svg></g><defs></defs></svg><rect width="95.481" height="83.03917955900417" fill="none" stroke="none" visibility="hidden"></rect></g></svg></g></svg>