<svg xmlns="http://www.w3.org/2000/svg" version="1.1" xmlns:xlink="http://www.w3.org/1999/xlink" xmlns:svgjs="http://svgjs.dev/svgjs" width="2000" height="489" viewBox="0 0 2000 489"><g transform="matrix(1,0,0,1,-1.2121212121212466,-1.2035610936421222)"><svg viewBox="0 0 396 97" data-background-color="#182524" preserveAspectRatio="xMidYMid meet" height="489" width="2000" xmlns="http://www.w3.org/2000/svg" xmlns:xlink="http://www.w3.org/1999/xlink"><g id="tight-bounds" transform="matrix(1,0,0,1,0.2400000000000091,0.23874320262430615)"><svg viewBox="0 0 395.52 96.52233574619389" height="96.52233574619389" width="395.52"><g><svg viewBox="0 0 555.6927676499778 135.6107501285469" height="96.52233574619389" width="395.52"><g transform="matrix(1,0,0,1,160.1727676499778,23.68923404434932)"><svg viewBox="0 0 395.52 88.23228203984826" height="88.23228203984826" width="395.52"><g id="textblocktransform"><svg viewBox="0 0 395.52 88.23228203984826" height="88.23228203984826" width="395.52" id="textblock"><g><rect width="136.42722810958168" height="4.691345346593302" y="73.92168275408548" fill="#e2f1e6" data-fill-palette-color="tertiary"></rect><rect width="136.42722810958168" height="4.691345346593302" y="73.92168275408548" x="259.0927718904183" fill="#e2f1e6" data-fill-palette-color="tertiary"></rect></g><g><svg viewBox="0 0 395.52 52.02142005420055" height="52.02142005420055" width="395.52"><g transform="matrix(1,0,0,1,0,0)"><svg width="395.52" viewBox="6.5 -35.7 276.73 36.400000000000006" height="52.02142005420055" data-palette-color="#e2f1e6"><path d="M9.9 0L6.5 0 6.5-35 21.2-35 21.2-32.55 12.9-33.7Q10.65-34 9.9-34L9.9-34 9.9-18.35Q10.7-18.35 13-18.5L13-18.5 20.65-19 20.65-16.7 13-17.2Q10.7-17.35 9.9-17.35L9.9-17.35 9.9 0ZM30.95 0L30.95-35 37.65-35Q42.95-35 45.87-32.77 48.8-30.55 48.8-26.55L48.8-26.55Q48.8-23.45 46.97-21.4 45.15-19.35 41.7-18.65L41.7-18.65 41.7-18.35Q45-17.7 47.1-15.25 49.2-12.8 50.25-9.2L50.25-9.2Q51.2-5.9 52.12-4.08 53.05-2.25 54.17-1.45 55.3-0.65 56.85-0.3L56.85-0.3 56.85 0 54.8 0Q52.6 0 51.17-0.8 49.75-1.6 48.75-3.5 47.75-5.4 46.85-8.75L46.85-8.75Q45.4-13.9 43-16.05 40.6-18.2 37.15-18.2L37.15-18.2 36.85-18.2 36.85-19.1 37.15-19.1Q45.2-19.1 45.2-26.5L45.2-26.5Q45.2-33.8 37.65-33.8L37.65-33.8 34.35-33.8 34.35 0 30.95 0ZM78.45 0L63.05 0 63.05-35 78.3-35 78.3-32.55 69.55-33.7Q67.25-34 66.45-34L66.45-34 66.45-18.75Q67.09-18.75 69.55-18.9L69.55-18.9 77.75-19.4 77.75-17.1 69.55-17.6Q67.09-17.75 66.45-17.75L66.45-17.75 66.45-1Q67.34-1 69.59-1.3L69.59-1.3 78.45-2.45 78.45 0ZM104.34 0L88.94 0 88.94-35 104.19-35 104.19-32.55 95.44-33.7Q93.14-34 92.34-34L92.34-34 92.34-18.75Q92.99-18.75 95.44-18.9L95.44-18.9 103.64-19.4 103.64-17.1 95.44-17.6Q92.99-17.75 92.34-17.75L92.34-17.75 92.34-1Q93.24-1 95.49-1.3L95.49-1.3 104.34-2.45 104.34 0ZM117.49 0L114.09 0 115.34-35.7 115.94-35.7 141.09-5.3 141.39-5.3 140.29-35 143.69-35 142.44 0.7 141.84 0.7 116.69-29.7 116.39-29.7 117.49 0ZM154.39 0L150.74 0 164.19-35 167.29-35 180.74 0 177.09 0 170.89-16.4 159.54-16.4 154.39 0ZM164.84-32.4L164.54-32.4 159.89-17.6 170.44-17.6 164.84-32.4ZM191.49 0L188.09 0 189.34-35.7 189.94-35.7 215.09-5.3 215.39-5.3 214.29-35 217.69-35 216.44 0.7 215.84 0.7 190.69-29.7 190.39-29.7 191.49 0ZM257.53-4.3L257.83-4.3 257.53-1.25Q256.13-0.65 254.13-0.2 252.13 0.25 250.08 0.48 248.03 0.7 246.43 0.7L246.43 0.7Q242.38 0.7 238.93-0.68 235.48-2.05 232.91-4.5 230.33-6.95 228.88-10.28 227.43-13.6 227.43-17.5L227.43-17.5Q227.43-21.4 228.88-24.73 230.33-28.05 232.91-30.5 235.48-32.95 238.93-34.33 242.38-35.7 246.43-35.7L246.43-35.7Q248.08-35.7 250.13-35.45 252.18-35.2 254.13-34.77 256.08-34.35 257.43-33.8L257.43-33.8 257.18-31 256.88-31Q255.03-32.7 252.23-33.6 249.43-34.5 246.43-34.5L246.43-34.5Q241.93-34.5 238.51-32.38 235.08-30.25 233.16-26.43 231.23-22.6 231.23-17.5L231.23-17.5Q231.23-12.35 233.16-8.55 235.08-4.75 238.48-2.63 241.88-0.5 246.43-0.5L246.43-0.5Q249.83-0.5 252.76-1.6 255.68-2.7 257.53-4.3L257.53-4.3ZM283.23 0L267.83 0 267.83-35 283.08-35 283.08-32.55 274.33-33.7Q272.03-34 271.23-34L271.23-34 271.23-18.75Q271.88-18.75 274.33-18.9L274.33-18.9 282.53-19.4 282.53-17.1 274.33-17.6Q271.88-17.75 271.23-17.75L271.23-17.75 271.23-1Q272.13-1 274.38-1.3L274.38-1.3 283.23-2.45 283.23 0Z" opacity="1" transform="matrix(1,0,0,1,0,0)" fill="#e2f1e6" class="wordmark-text-0" data-fill-palette-color="primary" id="text-0"></path></svg></g></svg></g><g transform="matrix(1,0,0,1,136.42722810958168,64.302428814916)"><svg viewBox="0 0 122.66554378083661 23.929853224932252" height="23.929853224932252" width="122.66554378083661"><g transform="matrix(1,0,0,1,8,0)"><svg width="106.66554378083661" viewBox="3 -39.65 225.07 50.5" height="23.929853224932252" data-palette-color="#e2f1e6"><path d="M9.35 0L3 0 3-34.55 19.7-34.55 19-29.8 9.35-29.8 9.35-19.25 17.75-19.25 17.75-14.5 9.35-14.5 9.35 0ZM23-26.45L29.15-26.45 29.15 0 23 0 23-26.45ZM26.05-39.65Q27.7-39.65 28.72-38.6 29.75-37.55 29.75-35.9L29.75-35.9Q29.75-34.3 28.72-33.25 27.7-32.2 26.05-32.2L26.05-32.2Q24.4-32.2 23.37-33.25 22.35-34.3 22.35-35.9L22.35-35.9Q22.35-37.55 23.37-38.6 24.4-39.65 26.05-39.65L26.05-39.65ZM47.2-27.15Q50.05-27.15 51.7-25.1 53.34-23.05 53.34-19.6L53.34-19.6 53.34 0 47.2 0 47.2-18.9Q47.2-20.8 46.67-21.63 46.15-22.45 45.15-22.45L45.15-22.45Q43.05-22.45 41-18.5L41-18.5 41 0 34.84 0 34.84-26.45 40.2-26.45 40.65-23Q42-25.1 43.52-26.13 45.05-27.15 47.2-27.15L47.2-27.15ZM75.79-6.4Q75.79-5.1 76.14-4.48 76.49-3.85 77.29-3.45L77.29-3.45 76.04 0.65Q73.99 0.4 72.77-0.45 71.54-1.3 70.94-3.05L70.94-3.05Q68.64 0.75 64.49 0.75L64.49 0.75Q61.19 0.75 59.24-1.48 57.29-3.7 57.29-7.4L57.29-7.4Q57.29-11.7 59.97-13.95 62.64-16.2 67.74-16.2L67.74-16.2 69.79-16.2 69.79-18.05Q69.79-20.55 68.92-21.58 68.04-22.6 66.09-22.6L66.09-22.6Q63.74-22.6 60.24-21.3L60.24-21.3 58.84-25.3Q60.84-26.2 62.99-26.68 65.14-27.15 67.09-27.15L67.09-27.15Q75.79-27.15 75.79-18.35L75.79-18.35 75.79-6.4ZM66.14-3.7Q68.54-3.7 69.79-7L69.79-7 69.79-12.55 68.34-12.55Q65.79-12.55 64.62-11.4 63.44-10.25 63.44-7.85L63.44-7.85Q63.44-5.8 64.14-4.75 64.84-3.7 66.14-3.7L66.14-3.7ZM93.94-27.15Q96.79-27.15 98.44-25.1 100.09-23.05 100.09-19.6L100.09-19.6 100.09 0 93.94 0 93.94-18.9Q93.94-20.8 93.42-21.63 92.89-22.45 91.89-22.45L91.89-22.45Q89.79-22.45 87.74-18.5L87.74-18.5 87.74 0 81.59 0 81.59-26.45 86.94-26.45 87.39-23Q88.74-25.1 90.27-26.13 91.79-27.15 93.94-27.15L93.94-27.15ZM115.14-27.15Q117.29-27.15 119.04-26.43 120.79-25.7 122.39-24.15L122.39-24.15 119.74-20.65Q118.64-21.55 117.66-21.98 116.69-22.4 115.54-22.4L115.54-22.4Q113.29-22.4 112.14-20.28 110.99-18.15 110.99-13.1L110.99-13.1Q110.99-8.2 112.16-6.2 113.34-4.2 115.54-4.2L115.54-4.2Q116.64-4.2 117.54-4.6 118.44-5 119.64-5.85L119.64-5.85 122.39-2.3Q119.19 0.75 115.24 0.75L115.24 0.75Q110.14 0.75 107.31-2.73 104.49-6.2 104.49-13L104.49-13Q104.49-17.4 105.79-20.6 107.09-23.8 109.51-25.48 111.94-27.15 115.14-27.15L115.14-27.15ZM144.29-13.85Q144.29-13.4 144.14-11.3L144.14-11.3 130.49-11.3Q130.69-7.2 131.91-5.58 133.14-3.95 135.39-3.95L135.39-3.95Q136.94-3.95 138.19-4.48 139.44-5 140.89-6.15L140.89-6.15 143.44-2.65Q139.94 0.75 135.03 0.75L135.03 0.75Q129.84 0.75 127.06-2.85 124.29-6.45 124.29-13L124.29-13Q124.29-19.55 126.94-23.35 129.59-27.15 134.44-27.15L134.44-27.15Q139.09-27.15 141.69-23.78 144.29-20.4 144.29-13.85L144.29-13.85ZM138.28-15.3L138.28-15.65Q138.28-19.4 137.39-21.13 136.49-22.85 134.49-22.85L134.49-22.85Q132.64-22.85 131.66-21.18 130.69-19.5 130.49-15.3L130.49-15.3 138.28-15.3ZM180.53 0L174.08 0 172.38-8.1 163.48-8.1 161.83 0 155.48 0 164.18-34.55 171.88-34.55 180.53 0ZM167.93-29.7L164.48-12.9 171.43-12.9 167.93-29.7ZM195.48-27.15Q199.38-27.15 201.38-23.58 203.38-20 203.38-13.3L203.38-13.3Q203.38-6.8 201.1-3.03 198.83 0.75 194.78 0.75L194.78 0.75Q191.58 0.75 189.43-2.1L189.43-2.1 189.43 10.15 183.28 10.85 183.28-26.45 188.73-26.45 188.98-23.25Q190.28-25.25 191.88-26.2 193.48-27.15 195.48-27.15L195.48-27.15ZM193.13-3.95Q195.03-3.95 196.03-6.13 197.03-8.3 197.03-13.25L197.03-13.25Q197.03-18.45 196.18-20.5 195.33-22.55 193.53-22.55L193.53-22.55Q191.23-22.55 189.43-19.25L189.43-19.25 189.43-6.45Q191.03-3.95 193.13-3.95L193.13-3.95ZM220.18-27.15Q224.07-27.15 226.07-23.58 228.07-20 228.07-13.3L228.07-13.3Q228.07-6.8 225.8-3.03 223.53 0.75 219.47 0.75L219.47 0.75Q216.28 0.75 214.13-2.1L214.13-2.1 214.13 10.15 207.97 10.85 207.97-26.45 213.43-26.45 213.68-23.25Q214.97-25.25 216.57-26.2 218.18-27.15 220.18-27.15L220.18-27.15ZM217.82-3.95Q219.72-3.95 220.72-6.13 221.72-8.3 221.72-13.25L221.72-13.25Q221.72-18.45 220.88-20.5 220.03-22.55 218.22-22.55L218.22-22.55Q215.93-22.55 214.13-19.25L214.13-19.25 214.13-6.45Q215.72-3.95 217.82-3.95L217.82-3.95Z" opacity="1" transform="matrix(1,0,0,1,0,0)" fill="#e2f1e6" class="slogan-text-1" data-fill-palette-color="secondary" id="text-1"></path></svg></g></svg></g></svg></g></svg></g><g><svg viewBox="0 0 135.6107501285469 135.6107501285469" height="135.6107501285469" width="135.6107501285469"><g><svg></svg></g><g id="icon-0"><svg viewBox="0 0 135.6107501285469 135.6107501285469" height="135.6107501285469" width="135.6107501285469"><g><path d="M0 67.805c0-37.448 30.358-67.805 67.805-67.805 37.448 0 67.805 30.358 67.806 67.805 0 37.448-30.358 67.805-67.806 67.806-37.448 0-67.805-30.358-67.805-67.806zM67.805 130.919c34.857 0 63.114-28.257 63.114-63.114 0-34.857-28.257-63.114-63.114-63.114-34.857 0-63.114 28.257-63.114 63.114 0 34.857 28.257 63.114 63.114 63.114z" data-fill-palette-color="tertiary" fill="#e2f1e6" stroke="transparent"></path></g><g transform="matrix(1,0,0,1,28.322103512979297,33.467040988123884)"><svg viewBox="0 0 78.9665431025883 68.67666815229913" height="68.67666815229913" width="78.9665431025883"><g><svg xmlns="http://www.w3.org/2000/svg" xmlns:xlink="http://www.w3.org/1999/xlink" version="1.1" x="0" y="0" viewBox="2.0964094463851337 8.5 95.55506174060346 83.10359055361486" enable-background="new 0 0 100 100" xml:space="preserve" height="68.67666815229913" width="78.9665431025883" class="icon-dxe-0" data-fill-palette-color="accent" id="dxe-0"><path d="M56.8 8.5C43.2 8.5 32.3 19.5 32.3 33 32.3 46.6 43.3 57.5 56.8 57.5S81.3 46.5 81.3 33C81.4 19.4 70.4 8.5 56.8 8.5M63.9 42.7C62.8 44 61.4 44.9 59.8 45.3 59.1 45.5 58.8 45.9 58.8 46.6V48.8C58.8 49.4 58.5 49.8 57.8 49.8H55.5C54.8 49.8 54.5 49.4 54.5 48.7V47.1C54.5 45.9 54.5 45.9 53.3 45.7 51.9 45.5 50.5 45.1 49.1 44.5 48.1 44 48 43.7 48.3 42.7 48.5 41.9 48.7 41.1 49 40.3 49.2 39.7 49.4 39.5 49.7 39.5 49.9 39.5 50.1 39.6 50.4 39.8 51.9 40.6 53.4 41 55 41.2 55.3 41.2 55.6 41.3 55.8 41.3 56.6 41.3 57.3 41.2 58 40.8 59.8 40 60.1 37.9 58.6 36.7 58.1 36.3 57.5 36 56.9 35.7 55.3 35 53.7 34.5 52.2 33.6 49.8 32.1 48.2 30.2 48.4 27.2 48.6 23.9 50.5 21.8 53.5 20.7 54.8 20.2 54.8 20.3 54.8 18.9V17.6C54.8 16.6 55 16.4 56 16.4H57.1C59 16.4 59 16.5 59 18.5 59 20 59 20 60.5 20.2 61.6 20.4 62.7 20.7 63.8 21.2 64.4 21.5 64.6 21.9 64.4 22.5 64.1 23.4 63.9 24.3 63.6 25.2 63.4 25.7 63.2 26 62.9 26 62.7 26 62.5 25.9 62.2 25.8 60.7 25.1 59.2 24.8 57.6 24.8H57C56.5 24.8 56.1 24.9 55.6 25.1 54 25.8 53.8 27.5 55.1 28.6 55.8 29.1 56.5 29.5 57.4 29.9 58.8 30.5 60.2 31 61.5 31.8 65.7 33.8 66.8 39.1 63.9 42.7M94.3 63C92.5 62.9 88.7 65 87.6 65.5 83.9 67.4 78.8 70.5 75.4 72.9 75.2 73.1 74.9 73.3 74.6 73.4 73.1 74.4 71.5 75.1 69.7 75.5 59.9 77.7 45.6 77.9 45.6 77.9H44.8C44.2 77.9 43.6 77.5 43.5 76.9 43.4 76.2 43.9 75.6 44.6 75.5L65.8 73.4C68.1 73.1 70 70.9 69.7 68.3S67.2 63.9 64.8 64.1L45.9 63.9C44.6 63.9 42.6 63.6 41.3 63.2 29.1 59.5 22.3 63 18.6 64.6 17.8 63.2 16.2 62.3 14.5 62.4L6.7 63C4 63.2 2 65.5 2.1 68.2L3.4 87C3.6 89.7 5.9 91.7 8.6 91.6L16.7 91C18.4 90.9 19.8 89.8 20.4 88.3L56.1 89.9C60.1 90.3 63.8 89.8 67.3 87.9L68.3 87.3 95.3 70.9C96.6 70.1 97.6 68.7 97.6 67.1 97.9 65.3 96.9 63.2 94.3 63M11.6 87.1C10.1 87.1 8.8 85.9 8.8 84.3 8.8 82.8 10 81.5 11.6 81.5 13.1 81.5 14.4 82.7 14.4 84.3S13.2 87.1 11.6 87.1M73.8 65.9C76.6 64.3 82.2 61.5 85.3 60.2 86.8 59.6 88.3 59.6 89.7 60.6 88.6 61 87.6 61.5 86.6 62 83.4 63.7 77.8 66.8 75 68.8 74.7 69 74.4 69.2 74.2 69.4V67.8C74.1 67.1 74 66.5 73.8 65.9 73.8 66 73.8 65.9 73.8 65.9M70.1 61.2C72 60.2 76.2 58.8 78 58 79.5 57.4 81 57.4 82.4 58.4 80.2 59.4 76 61 74 62.1L72.6 62.9C72.5 63 72.4 63.1 72.2 63.2 71.6 62.4 70.9 61.7 70.1 61.2" fill="#d2cb00" data-fill-palette-color="accent"></path></svg></g></svg></g></svg></g></svg></g></svg></g><defs></defs></svg><rect width="395.52" height="96.52233574619389" fill="none" stroke="none" visibility="hidden"></rect></g></svg></g></svg>